P3
#GreyScaledImage
32 16
255
0
0
0
0
0
0
0
0
0
0
0
0
67
67
67
55
55
55
55
55
55
59
59
59
65
65
65
70
70
70
75
75
75
81
81
81
82
82
82
54
54
54
33
33
33
18
18
18
8
8
8
3
3
3
0
0
0
0
0
0
1
1
1
2
2
2
4
4
4
7
7
7
11
11
11
16
16
16
15
15
15
13
13
13
11
11
11
10
10
10
8
8
8
7
7
7
154
154
154
132
132
132
110
110
110
92
92
92
75
75
75
61
61
61
52
52
52
57
57
57
61
61
61
67
67
67
72
72
72
78
78
78
83
83
83
67
67
67
43
43
43
25
25
25
13
13
13
5
5
5
1
1
1
0
0
0
0
0
0
2
2
2
3
3
3
6
6
6
9
9
9
14
14
14
16
16
16
14
14
14
12
12
12
11
11
11
9
9
9
8
8
8
168
168
168
144
144
144
121
121
121
8
8
8
0
0
0
0
0
0
0
0
0
0
0
0
0
0
0
0
0
0
0
0
0
1
1
1
81
81
81
82
82
82
5
5
5
0
0
0
0
0
0
0
0
0
0
0
0
0
0
0
0
0
0
1
1
1
2
2
2
4
4
4
7
7
7
11
11
11
16
16
16
15
15
15
13
13
13
10
10
10
0
0
0
8
8
8
172
172
172
154
154
154
132
132
132
108
108
108
29
29
29
3
3
3
255
255
255
255
255
255
255
255
255
132
132
132
0
0
0
45
45
45
189
189
189
83
83
83
64
64
64
11
11
11
2
2
2
237
237
237
220
220
220
138
138
138
21
21
21
3
3
3
3
3
3
3
3
3
6
6
6
9
9
9
14
14
14
16
16
16
14
14
14
1
1
1
0
0
0
179
179
179
146
146
146
168
168
168
144
144
144
121
121
121
18
18
18
21
21
21
192
192
192
55
55
55
55
55
55
59
59
59
0
0
0
159
159
159
134
134
134
81
81
81
81
81
81
9
9
9
17
17
17
163
163
163
10
10
10
5
5
5
5
5
5
0
0
0
92
92
92
2
2
2
4
4
4
7
7
7
11
11
11
16
16
16
5
5
5
1
1
1
0
0
0
255
255
255
124
124
124
172
172
172
157
157
157
132
132
132
3
3
3
85
85
85
108
108
108
0
0
0
52
52
52
57
57
57
61
61
61
243
243
243
88
88
88
78
78
78
83
83
83
2
2
2
62
62
62
88
88
88
13
13
13
5
5
5
0
0
0
0
0
0
194
194
194
2
2
2
3
3
3
6
6
6
9
9
9
10
10
10
0
0
0
41
41
41
0
0
0
255
255
255
103
103
103
146
146
146
168
168
168
136
136
136
0
0
0
194
194
194
23
23
23
2
2
2
220
220
220
55
55
55
59
59
59
65
65
65
70
70
70
75
75
75
78
78
78
0
0
0
154
154
154
41
41
41
10
10
10
0
0
0
0
0
0
5
5
5
150
150
150
1
1
1
2
2
2
4
4
4
7
7
7
0
0
0
11
11
11
146
146
146
0
0
0
255
255
255
86
86
86
124
124
124
172
172
172
71
71
71
0
0
0
0
0
0
0
0
0
15
15
15
175
175
175
52
52
52
57
57
57
61
61
61
67
67
67
72
72
72
36
36
36
0
0
0
0
0
0
0
0
0
0
0
0
0
0
0
30
30
30
217
217
217
11
11
11
0
0
0
2
2
2
3
3
3
1
1
1
0
0
0
128
128
128
36
36
36
0
0
0
255
255
255
70
70
70
103
103
103
146
146
146
21
21
21
25
25
25
189
189
189
0
0
0
88
88
88
138
138
138
55
55
55
55
55
55
59
59
59
65
65
65
70
70
70
9
9
9
19
19
19
237
237
237
62
62
62
9
9
9
240
240
240
140
140
140
17
17
17
0
0
0
0
0
0
1
1
1
1
1
1
0
0
0
44
44
44
89
89
89
16
16
16
0
0
0
255
255
255
57
57
57
86
86
86
124
124
124
2
2
2
98
98
98
179
179
179
0
0
0
175
175
175
112
112
112
61
61
61
52
52
52
57
57
57
61
61
61
67
67
67
0
0
0
78
78
78
140
140
140
59
59
59
0
0
0
112
112
112
13
13
13
5
5
5
1
1
1
0
0
0
0
0
0
0
0
0
0
0
0
0
0
0
0
0
0
0
0
0
0
0
0
255
255
255
45
45
45
70
70
70
89
89
89
0
0
0
220
220
220
161
161
161
121
121
121
234
234
234
94
94
94
69
69
69
55
55
55
55
55
55
59
59
59
56
56
56
0
0
0
189
189
189
102
102
102
82
82
82
3
3
3
47
47
47
22
22
22
9
9
9
3
3
3
0
0
0
0
0
0
0
0
0
144
144
144
255
255
255
255
255
255
255
255
255
0
0
0
255
255
255
35
35
35
57
57
57
28
28
28
3
3
3
243
243
243
154
154
154
132
132
132
112
112
112
33
33
33
0
0
0
61
61
61
52
52
52
57
57
57
20
20
20
2
2
2
228
228
228
78
78
78
83
83
83
28
28
28
1
1
1
75
75
75
13
13
13
5
5
5
0
0
0
0
0
0
44
44
44
59
59
59
3
3
3
6
6
6
8
8
8
0
0
0
255
255
255
26
26
26
33
33
33
0
0
0
12
12
12
215
215
215
159
159
159
105
105
105
36
36
36
0
0
0
28
28
28
199
199
199
55
55
55
37
37
37
0
0
0
12
12
12
161
161
161
75
75
75
81
81
81
81
81
81
0
0
0
24
24
24
10
10
10
1
1
1
0
0
0
5
5
5
136
136
136
1
1
1
2
2
2
4
4
4
1
1
1
0
0
0
121
121
121
4
4
4
0
0
0
0
0
0
0
0
0
0
0
0
0
0
0
0
0
0
0
0
0
0
0
0
212
212
212
124
124
124
13
13
13
0
0
0
0
0
0
0
0
0
1
1
1
74
74
74
78
78
78
83
83
83
7
7
7
0
0
0
0
0
0
0
0
0
0
0
0
0
0
0
3
3
3
0
0
0
2
2
2
0
0
0
0
0
0
0
0
0
0
0
0
14
14
14
76
76
76
255
255
255
255
255
255
255
255
255
255
255
255
255
255
255
255
255
255
255
255
255
234
234
234
85
85
85
69
69
69
107
107
107
255
255
255
255
255
255
255
255
255
192
192
192
75
75
75
81
81
81
82
82
82
130
130
130
255
255
255
255
255
255
255
255
255
255
255
255
192
192
192
0
0
0
1
1
1
2
2
2
142
142
142
255
255
255
255
255
255
10
10
10
20
20
20
35
35
35
57
57
57
86
86
86
123
123
123
170
170
170
157
157
157
132
132
132
112
112
112
92
92
92
75
75
75
61
61
61
52
52
52
57
57
57
61
61
61
67
67
67
72
72
72
78
78
78
83
83
83
67
67
67
43
43
43
25
25
25
13
13
13
5
5
5
1
1
1
0
0
0
0
0
0
2
2
2
3
3
3
6
6
6
9
9
9
